<svg xmlns="http://www.w3.org/2000/svg" version="1.1" xmlns:xlink="http://www.w3.org/1999/xlink"
    xmlns:svgjs="http://svgjs.dev/svgjs" width="100%" height="100%" viewBox="0 0 1000 600">
    <rect width="1000" height="600" x="0" y="0" fill="#072c50" />
    <g>
        <rect width="333.3333333333333" height="333.3333333333333" rx="13.333333333333334" ry="13.333333333333334"
            y="160.86906273337675" fill="#b88746"
            transform="matrix(0.901571002784176,0,0,0.9015710027841759,0,4.703255001462622)" x="138.64683532714844" />
        <path
            d="M315.898676498606 402.53572591632724L315.898676498606 402.53572591632724Q293.4109327321802 402.53572591632724 277.0812768363968 393.2832754838196Q260.75162094061346 384.00018779822415 251.92809205133466 368.0075416864064Q243.10456316205585 352.01489557458854 243.10456316205585 331.51857325886795L243.10456316205585 331.51857325886795Q243.10456316205585 315.83229967792784 249.170739273435 301.61661424520094Q255.2369153848142 287.400928812474 265.71485594083276 276.3715177008754Q276.1927964968514 265.3421065892769 289.9795603863495 258.93892069393223Q303.76632427584764 252.53573479858755 319.20749983208555 252.53573479858755L319.20749983208555 252.53573479858755Q330.23691094368405 252.53573479858755 337.957498721803 253.9756856937129Q345.67808649992196 255.41563658883828 351.74426261130117 257.71343057042134Q357.8104387226803 260.0418618050921 363.9991638464106 263.1362243669572L363.9991638464106 263.1362243669572L365.1021049575704 301.73916325755204L361.11926205615987 301.73916325755204L347.66950795062724 274.809017793399Q339.2749006045773 268.86539069437094 332.9942637215837 266.1999496757346Q326.7136268385901 263.56514591018606 318.7785782888567 263.56514591018606L318.7785782888567 263.56514591018606Q302.8778439363022 263.56514591018606 290.40848192957833 271.50019445991944Q277.9697571759423 279.4352430096528 270.8006399534032 293.2220068991509Q263.63152273086416 307.0087707886491 263.63152273086416 324.90092659190884L263.63152273086416 324.90092659190884Q263.63152273086416 345.85680770394606 270.555541928701 360.746512704604Q277.51019837962565 375.63621770526197 289.3055408184185 383.4487172426443Q301.1315205102991 391.2918540331143 315.4697549553772 391.2918540331143L315.4697549553772 391.2918540331143Q327.6021071781355 391.2918540331143 335.8741655118344 387.8604816872837Q344.1462238455333 384.4597465945408 350.5187724877902 380.2624429215158L350.5187724877902 380.2624429215158L363.7540658217084 356.64112079084236L367.52244795150455 356.64112079084236L365.1021049575704 391.72077557634316Q358.6989190622258 395.02959890982277 351.9587233829156 397.4499419037568Q345.24916495669316 399.9009221507787 336.64009683902873 401.218324033553Q328.03102872136435 402.53572591632724 315.898676498606 402.53572591632724Z "
            fill="#072c50" transform="matrix(0.901571002784176,0,0,0.9015710027841759,0,4.703255001462622)" />
        <path
            d="M672.8008781291464 402.53573347092356L555.3135055235373 402.53573347092356L555.3135055235373 398.9056830008416L573.4953235302087 389.8147739975059L573.4953235302087 265.2566943893023L555.3135055235373 256.1657853859667L555.3135055235373 252.5357349158847L666.4561812205684 252.5357349158847L666.4561812205684 291.61401736772353L662.8261307504864 291.61401736772353L648.7162824015592 265.0357347954713L593.949868787714 265.0357347954713L593.949868787714 318.88674437773057L632.5862320518906 318.88674437773057L643.9498683060602 300.042047589566L647.5799187761422 300.042047589566L647.5799187761422 349.8210875140812L643.9498683060602 349.8210875140812L632.5862320518906 331.3867442573171L593.949868787714 331.3867442573171L593.949868787714 390.035733591337L655.0925449663988 390.035733591337L669.1708276590645 361.1847237682508L672.8008781291464 361.1847237682508L672.8008781291464 402.53573347092356ZM766.2352206634299 402.53573347092356L703.4826960154044 402.53573347092356L703.4826960154044 398.9056830008416L721.6645140220758 389.8147739975059L721.6645140220758 265.2566943893023L703.4826960154044 256.1657853859667L703.4826960154044 252.5357349158847L760.9953217240073 252.5357349158847Q775.9890084482588 252.5357349158847 787.9208265151369 256.292048011013Q799.852644582015 260.0483611061413 806.6708263345168 267.43472467135155Q813.4890080870186 274.82108823656176 813.4890080870186 286.1847244907314L813.4890080870186 286.1847244907314Q813.4890080870186 297.7693203387321 805.7554223029309 307.42841115477626Q798.0534021751048 317.0875019708204 783.5016346385154 321.15947162856446L783.5016346385154 321.15947162856446Q803.7352203021896 323.9056837233221 815.0988565563594 333.78573413319737Q826.4624928105289 343.6657845430726 826.4624928105289 358.9119965174169L826.4624928105289 358.9119965174169Q826.4624928105289 371.41199639700346 818.602644401395 381.2920468068787Q810.7743616485225 391.17209721675397 797.137998143519 396.8539153438388Q783.5016346385154 402.53573347092356 766.2352206634299 402.53573347092356L766.2352206634299 402.53573347092356ZM755.7554227845847 265.0357347954713L755.7554227845847 265.0357347954713L742.119059279581 265.0357347954713L742.119059279581 318.88674437773057L757.1443116600942 318.88674437773057Q773.2743620097629 318.88674437773057 782.3652710130984 311.9738656564441Q791.4561800164341 305.029421278896 791.4561800164341 292.5294213993094L791.4561800164341 292.5294213993094Q791.4561800164341 265.0357347954713 755.7554227845847 265.0357347954713ZM764.4044126002582 331.3867442573171L764.4044126002582 331.3867442573171L742.119059279581 331.3867442573171L742.119059279581 390.035733591337L765.9826954133373 390.035733591337Q783.9435538261775 390.035733591337 794.1708264549302 381.86022861958725Q804.3980990836828 373.68472364783736 804.3980990836828 360.71123892432706L804.3980990836828 360.71123892432706Q804.3980990836828 345.2756330124133 794.0761294861454 338.33118863486527Q783.7225942323465 331.3867442573171 764.4044126002582 331.3867442573171ZM970.5281479883904 402.53573347092356L853.0407753827812 402.53573347092356L853.0407753827812 398.9056830008416L871.2225933894526 389.8147739975059L871.2225933894526 265.2566943893023L853.0407753827812 256.1657853859667L853.0407753827812 252.5357349158847L964.1834510798124 252.5357349158847L964.1834510798124 291.61401736772353L960.5534006097304 291.61401736772353L946.4435522608031 265.0357347954713L891.6771386469579 265.0357347954713L891.6771386469579 318.88674437773057L930.3135019111346 318.88674437773057L941.6771381653041 300.042047589566L945.3071886353862 300.042047589566L945.3071886353862 349.8210875140812L941.6771381653041 349.8210875140812L930.3135019111346 331.3867442573171L891.6771386469579 331.3867442573171L891.6771386469579 390.035733591337L952.8198148256428 390.035733591337L966.8980975183083 361.1847237682508L970.5281479883904 361.1847237682508L970.5281479883904 402.53573347092356Z "
            fill="#b88746" transform="matrix(0.901571002784176,0,0,0.9015710027841759,0,4.703255001462622)" />
    </g>
</svg>